HIERARCHY
ROOT root
{
	OFFSET 0.000000 0.000000 0.000000
	CHANNELS 6 Xposition Yposition Zposition Zrotation Yrotation Xrotation
	JOINT lhip
	{
		OFFSET 0.058581 -0.082280 -0.017664
		CHANNELS 3 Zrotation Yrotation Xrotation
		JOINT lknee
		{
			OFFSET 0.043451 -0.386469 0.008037
			CHANNELS 3 Zrotation Yrotation Xrotation
			JOINT lankle
			{
				OFFSET -0.014790 -0.426874 -0.037428
				CHANNELS 3 Zrotation Yrotation Xrotation
				JOINT ltoe
				{
					OFFSET 0.041054 -0.060286 0.122042
					CHANNELS 3 Zrotation Yrotation Xrotation
					End Site
					{
						OFFSET 0.000000 0.000000 0.000000
					}
				}
			}
		}
	}
	JOINT rhip
	{
		OFFSET -0.060310 -0.090513 -0.013543
		CHANNELS 3 Zrotation Yrotation Xrotation
		JOINT rknee
		{
			OFFSET -0.043257 -0.383688 -0.004843
			CHANNELS 3 Zrotation Yrotation Xrotation
			JOINT rankle
			{
				OFFSET 0.019056 -0.420046 -0.034562
				CHANNELS 3 Zrotation Yrotation Xrotation
				JOINT rtoe
				{
					OFFSET -0.034840 -0.062106 0.130323
					CHANNELS 3 Zrotation Yrotation Xrotation
					End Site
					{
						OFFSET 0.000000 0.000000 0.000000
					}
				}
			}
		}
	}
	JOINT lowerback
	{
		OFFSET 0.004439 0.124404 -0.038385
		CHANNELS 3 Zrotation Yrotation Xrotation
		JOINT upperback
		{
			OFFSET 0.004488 0.137956 0.026820
			CHANNELS 3 Zrotation Yrotation Xrotation
			JOINT chest
			{
				OFFSET -0.002265 0.056032 0.002855
				CHANNELS 3 Zrotation Yrotation Xrotation
				JOINT lowerneck
				{
					OFFSET -0.013390 0.211636 -0.033468
					CHANNELS 3 Zrotation Yrotation Xrotation
					JOINT upperneck
					{
						OFFSET 0.010113 0.088937 0.050410
						CHANNELS 3 Zrotation Yrotation Xrotation
						End Site
						{
							OFFSET 0.000000 0.000000 0.000000
						}
					}
				}
				JOINT lclavicle
				{
					OFFSET 0.071702 0.114000 -0.018898
					CHANNELS 3 Zrotation Yrotation Xrotation
					JOINT lshoulder
					{
						OFFSET 0.122921 0.045205 -0.019046
						CHANNELS 3 Zrotation Yrotation Xrotation
						JOINT lelbow
						{
							OFFSET 0.255332 -0.015649 -0.022946
							CHANNELS 3 Zrotation Yrotation Xrotation
							JOINT lwrist
							{
								OFFSET 0.265709 0.012698 -0.007375
								CHANNELS 3 Zrotation Yrotation Xrotation
								End Site
								{
									OFFSET 0.000000 0.000000 0.000000
								}
							}
						}
					}
				}
				JOINT rclavicle
				{
					OFFSET -0.082954 0.112472 -0.023707
					CHANNELS 3 Zrotation Yrotation Xrotation
					JOINT rshoulder
					{
						OFFSET -0.113228 0.046853 -0.008472
						CHANNELS 3 Zrotation Yrotation Xrotation
						JOINT relbow
						{
							OFFSET -0.260127 -0.014369 -0.031269
							CHANNELS 3 Zrotation Yrotation Xrotation
							JOINT rwrist
							{
								OFFSET -0.269108 0.006794 -0.006027
								CHANNELS 3 Zrotation Yrotation Xrotation
								End Site
								{
									OFFSET 0.000000 0.000000 0.000000
								}
							}
						}
					}
				}
			}
		}
	}
}
MOTION
Frames: 10
Frame Time: 0.033333
-0.978129 0.315701 1.026857 82.841739 0.550264 83.728120 3.106691 7.178821 10.137620 -3.260687 6.085523 0.830015 3.173164 14.033895 -9.734730 0.000000 -0.000000 0.000000 2.251840 -2.112008 2.592872 1.771909 -6.410665 13.962748 -0.839326 -7.941289 -13.998298 0.000000 -0.000000 0.000000 0.033035 -2.245555 6.444601 0.805102 -3.153418 3.411286 -0.598888 -2.082190 2.748545 3.376269 -13.391713 2.173207 5.721975 -16.409576 3.302213 -22.179282 2.370473 3.999173 -60.755041 -6.178041 7.696657 8.161562 -26.964692 8.405977 -8.954787 -8.015841 -9.423812 19.926945 2.604118 4.032963 60.202123 5.147356 12.599444 -7.818063 29.121159 5.831084 10.265036 2.847383 -7.145719 
-0.979181 0.316697 1.026918 83.038360 0.623807 83.752394 3.106981 7.172291 10.246413 -3.273690 5.970981 0.350724 3.426191 13.889422 -9.444204 0.000000 -0.000000 0.000000 2.275248 -2.165614 2.474235 1.705613 -6.629233 13.999240 -0.973212 -7.856469 -13.900358 0.000000 -0.000000 0.000000 0.062726 -2.263861 6.718893 0.781577 -3.198221 3.135622 -0.623199 -1.996933 2.718709 3.288767 -13.456788 2.054361 5.715246 -16.484218 3.638250 -21.927076 2.273640 4.037566 -60.929892 -6.339015 7.786798 8.349645 -27.523486 8.508991 -8.916458 -8.031027 -9.946698 19.783346 2.676100 4.159411 60.563336 4.829289 12.692344 -7.991497 28.830372 6.074906 10.366280 2.819518 -7.473935 
-0.980033 0.317709 1.027019 83.198495 0.712644 83.788290 3.110700 7.195491 10.255731 -3.249789 5.828831 0.047870 3.476730 13.827158 -9.307403 0.000000 -0.000000 0.000000 2.298936 -2.248104 2.398710 1.699782 -6.726115 13.937285 -0.942227 -7.855827 -13.805459 0.000000 -0.000000 0.000000 0.098867 -2.264957 6.842331 0.767922 -3.173579 3.046155 -0.635136 -1.964181 2.669706 3.210670 -13.528187 2.091179 5.802105 -16.533709 3.657955 -21.887662 2.248883 4.057753 -60.857410 -6.517683 7.885510 8.325052 -28.138955 8.634490 -8.790909 -8.100556 -9.933832 19.740489 2.656741 4.207087 60.693456 4.589143 12.654205 -7.938968 28.530524 6.163584 10.418625 2.760808 -7.417810 
-0.981143 0.318917 1.027146 83.235294 0.795941 83.814693 3.083535 7.143690 10.219157 -3.229800 5.749665 -0.157024 3.559985 13.845897 -9.211950 0.000000 -0.000000 0.000000 2.325612 -2.244585 2.268642 1.672702 -6.783829 13.943133 -0.893864 -7.857838 -13.692157 0.000000 -0.000000 0.000000 0.103622 -2.226423 6.956673 0.731511 -3.070792 2.973334 -0.661066 -1.910041 2.648331 3.188468 -13.561539 2.132535 5.910317 -16.572055 3.702906 -21.832287 2.229325 4.066226 -60.790563 -6.688348 8.038722 8.280784 -28.816539 8.814668 -8.630313 -8.250023 -9.885189 19.696048 2.653464 4.274118 60.837038 4.386551 12.633885 -7.911641 28.170677 6.223448 10.469809 2.697470 -7.369738 
-0.981879 0.319677 1.027237 83.198045 0.835377 83.818425 3.052653 7.076822 10.199984 -3.224817 5.724651 -0.233453 3.614208 13.906465 -9.155882 0.000000 -0.000000 0.000000 2.347282 -2.200978 2.173610 1.636415 -6.793022 13.989922 -0.875685 -7.874269 -13.616116 0.000000 -0.000000 0.000000 0.088819 -2.193388 7.006339 0.701362 -2.994888 2.958630 -0.680001 -1.862377 2.647229 3.192167 -13.579423 2.180016 5.993107 -16.588540 3.717370 -21.777653 2.186969 4.064342 -60.766156 -6.778567 8.122661 8.209376 -29.104494 8.900036 -8.593396 -8.261972 -9.855407 19.656159 2.682055 4.320091 60.914732 4.302824 12.634783 -7.900675 28.014872 6.247874 10.529424 2.652248 -7.355389 
-0.982798 0.320724 1.027387 83.130593 0.898442 83.824569 3.013831 7.001833 10.194738 -3.209153 5.706080 -0.364377 3.685922 14.003245 -9.075340 0.000000 -0.000000 0.000000 2.381796 -2.172253 2.069914 1.593756 -6.790866 14.010864 -0.856770 -7.889458 -13.502410 0.000000 -0.000000 0.000000 0.082508 -2.134930 7.050179 0.666736 -2.931639 2.946651 -0.697098 -1.810103 2.627496 3.162938 -13.635317 2.307335 6.107569 -16.591129 3.719120 -21.708802 2.110666 4.122204 -60.766518 -6.854624 8.196679 8.094325 -29.374520 9.019094 -8.619633 -8.196339 -9.867500 19.565923 2.737024 4.389700 60.983613 4.202772 12.623114 -7.854621 27.931373 6.309494 10.617037 2.609435 -7.362371 
-0.983774 0.321795 1.027489 83.077052 0.977941 83.854915 3.001729 6.987969 10.184775 -3.200709 5.699192 -0.540158 3.756236 14.038761 -9.010226 0.000000 -0.000000 0.000000 2.408998 -2.195568 1.950982 1.580545 -6.793321 14.006934 -0.842714 -7.872483 -13.398560 0.000000 -0.000000 0.000000 0.084257 -2.085326 7.083712 0.647868 -2.905741 2.917709 -0.699418 -1.773015 2.579762 3.114387 -13.707688 2.441728 6.204559 -16.597992 3.746725 -21.637936 2.010467 4.219360 -60.801198 -6.851901 8.245406 7.947236 -29.471046 9.156273 -8.682114 -8.152134 -9.921463 19.462278 2.801166 4.483577 60.996652 4.129375 12.587742 -7.801546 27.987826 6.376553 10.658720 2.609663 -7.408848 
-0.984796 0.322818 1.027551 83.041762 1.061316 83.889833 3.023152 7.016362 10.152689 -3.214264 5.693314 -0.685501 3.803940 14.023320 -8.964387 0.000000 -0.000000 0.000000 2.430796 -2.219441 1.837157 1.591090 -6.809834 13.983922 -0.833448 -7.855664 -13.309176 0.000000 -0.000000 0.000000 0.087144 -2.073849 7.103021 0.627907 -2.895782 2.892160 -0.704100 -1.752264 2.528646 3.069328 -13.743842 2.554983 6.277585 -16.609414 3.800566 -21.574673 1.880045 4.332208 -60.830281 -6.786980 8.286244 7.781120 -29.374703 9.320983 -8.730718 -8.117192 -9.894737 19.376706 2.890283 4.566745 60.972514 4.109710 12.553961 -7.757607 28.097580 6.430511 10.654285 2.624989 -7.466455 
-0.985745 0.323882 1.027651 83.053739 1.129001 83.866745 3.052720 7.045310 10.115134 -3.234812 5.679717 -0.702825 3.849697 13.970802 -8.975654 0.000000 -0.000000 0.000000 2.433951 -2.245421 1.810384 1.605753 -6.844887 13.932698 -0.822834 -7.852418 -13.238297 0.000000 -0.000000 0.000000 0.087727 -2.069326 7.164950 0.605745 -2.918686 2.892030 -0.715006 -1.769903 2.477290 3.027468 -13.768331 2.635239 6.342168 -16.611773 3.794487 -21.574844 1.738435 4.421053 -60.808148 -6.701106 8.303396 7.590132 -29.074057 9.502859 -8.786112 -8.082415 -9.726137 19.324706 2.983384 4.594384 60.903900 4.128732 12.510208 -7.710228 28.226680 6.460754 10.638138 2.648515 -7.480230 
-0.986828 0.325183 1.027787 83.117725 1.173144 83.756424 3.072917 7.055114 10.071130 -3.263708 5.636444 -0.567370 3.921724 13.903755 -9.049605 0.000000 -0.000000 0.000000 2.413366 -2.274390 1.842245 1.597454 -6.890896 13.929502 -0.813039 -7.875124 -13.203614 0.000000 -0.000000 0.000000 0.059467 -2.037897 7.303826 0.574980 -2.967959 2.918208 -0.725835 -1.807573 2.401220 2.967636 -13.827925 2.736783 6.431679 -16.631947 3.681219 -21.610702 1.559539 4.471524 -60.760362 -6.599751 8.282797 7.336920 -28.456498 9.695833 -8.916512 -8.014853 -9.437085 19.257453 3.060412 4.543852 60.834053 4.146380 12.442289 -7.650786 28.443277 6.512421 10.640034 2.679396 -7.468991 
